<?xml version="1.0" standalone="no"?>
<!DOCTYPE svg PUBLIC "-//W3C//DTD SVG 1.1//EN" "http://www.w3.org/Graphics/SVG/1.1/DTD/svg11.dtd">
<svg xmlns="http://www.w3.org/2000/svg" xmlns:xlink="http://www.w3.org/1999/xlink" width="375" zoomAndPan="magnify" viewBox="0 0 375 194.87999" height="194.87998962402344" preserveAspectRatio="xMidYMid meet" version="1.2"><defs/><g id="268024ff20"><g style="fill:#beaf87;fill-opacity:1;"><g transform="translate(14.117496, 54.916994)"><path style="stroke:none" d="M 11.984375 0.34375 C 10.554688 0.34375 9.234375 0.078125 8.015625 -0.453125 C 6.804688 -0.984375 5.757812 -1.707031 4.875 -2.625 C 4 -3.550781 3.3125 -4.640625 2.8125 -5.890625 C 2.320312 -7.140625 2.078125 -8.476562 2.078125 -9.90625 L 2.078125 -9.96875 C 2.078125 -11.375 2.328125 -12.703125 2.828125 -13.953125 C 3.335938 -15.203125 4.03125 -16.296875 4.90625 -17.234375 C 5.789062 -18.171875 6.835938 -18.910156 8.046875 -19.453125 C 9.265625 -19.992188 10.597656 -20.265625 12.046875 -20.265625 C 12.929688 -20.265625 13.734375 -20.1875 14.453125 -20.03125 C 15.179688 -19.882812 15.851562 -19.664062 16.46875 -19.375 C 17.082031 -19.09375 17.660156 -18.757812 18.203125 -18.375 C 18.742188 -17.988281 19.269531 -17.554688 19.78125 -17.078125 L 18.734375 -16 C 18.296875 -16.414062 17.835938 -16.800781 17.359375 -17.15625 C 16.890625 -17.519531 16.382812 -17.828125 15.84375 -18.078125 C 15.300781 -18.335938 14.710938 -18.546875 14.078125 -18.703125 C 13.441406 -18.859375 12.753906 -18.9375 12.015625 -18.9375 C 10.816406 -18.9375 9.703125 -18.707031 8.671875 -18.25 C 7.648438 -17.789062 6.765625 -17.15625 6.015625 -16.34375 C 5.265625 -15.539062 4.675781 -14.597656 4.25 -13.515625 C 3.820312 -12.441406 3.609375 -11.273438 3.609375 -10.015625 L 3.609375 -9.96875 C 3.609375 -8.707031 3.828125 -7.53125 4.265625 -6.4375 C 4.703125 -5.351562 5.296875 -4.40625 6.046875 -3.59375 C 6.796875 -2.789062 7.679688 -2.15625 8.703125 -1.6875 C 9.734375 -1.226562 10.847656 -1 12.046875 -1 C 13.484375 -1 14.734375 -1.265625 15.796875 -1.796875 C 16.859375 -2.328125 17.894531 -3.09375 18.90625 -4.09375 L 19.90625 -3.125 C 19.375 -2.613281 18.828125 -2.144531 18.265625 -1.71875 C 17.703125 -1.289062 17.101562 -0.925781 16.46875 -0.625 C 15.832031 -0.320312 15.144531 -0.0859375 14.40625 0.078125 C 13.664062 0.253906 12.859375 0.34375 11.984375 0.34375 Z M 11.984375 0.34375 "/></g></g><g style="fill:#beaf87;fill-opacity:1;"><g transform="translate(36.346257, 54.916994)"><path style="stroke:none" d="M 2.953125 -19.921875 L 17.140625 -19.921875 L 17.140625 -18.5625 L 4.4375 -18.5625 L 4.4375 -10.734375 L 15.859375 -10.734375 L 15.859375 -9.359375 L 4.4375 -9.359375 L 4.4375 -1.359375 L 17.28125 -1.359375 L 17.28125 0 L 2.953125 0 Z M 2.953125 -19.921875 "/></g></g><g style="fill:#beaf87;fill-opacity:1;"><g transform="translate(56.497319, 54.916994)"><path style="stroke:none" d="M 2.953125 -19.921875 L 4.359375 -19.921875 L 18.109375 -2.59375 L 18.109375 -19.921875 L 19.53125 -19.921875 L 19.53125 0 L 18.421875 0 L 4.390625 -17.703125 L 4.390625 0 L 2.953125 0 Z M 2.953125 -19.921875 "/></g></g><g style="fill:#beaf87;fill-opacity:1;"><g transform="translate(80.063774, 54.916994)"><path style="stroke:none" d="M 8.34375 -18.5625 L 1.390625 -18.5625 L 1.390625 -19.921875 L 16.765625 -19.921875 L 16.765625 -18.5625 L 9.828125 -18.5625 L 9.828125 0 L 8.34375 0 Z M 8.34375 -18.5625 "/></g></g><g style="fill:#beaf87;fill-opacity:1;"><g transform="translate(99.304058, 54.916994)"><path style="stroke:none" d="M 10.8125 0.3125 C 9.625 0.3125 8.53125 0.128906 7.53125 -0.234375 C 6.53125 -0.609375 5.664062 -1.160156 4.9375 -1.890625 C 4.207031 -2.617188 3.640625 -3.515625 3.234375 -4.578125 C 2.835938 -5.640625 2.640625 -6.875 2.640625 -8.28125 L 2.640625 -19.921875 L 4.125 -19.921875 L 4.125 -8.421875 C 4.125 -6.054688 4.71875 -4.234375 5.90625 -2.953125 C 7.09375 -1.671875 8.75 -1.03125 10.875 -1.03125 C 11.882812 -1.03125 12.796875 -1.179688 13.609375 -1.484375 C 14.421875 -1.785156 15.113281 -2.238281 15.6875 -2.84375 C 16.269531 -3.457031 16.71875 -4.21875 17.03125 -5.125 C 17.351562 -6.03125 17.515625 -7.082031 17.515625 -8.28125 L 17.515625 -19.921875 L 18.984375 -19.921875 L 18.984375 -8.453125 C 18.984375 -7.023438 18.785156 -5.765625 18.390625 -4.671875 C 17.992188 -3.585938 17.429688 -2.675781 16.703125 -1.9375 C 15.984375 -1.195312 15.125 -0.632812 14.125 -0.25 C 13.132812 0.125 12.03125 0.3125 10.8125 0.3125 Z M 10.8125 0.3125 "/></g></g><g style="fill:#beaf87;fill-opacity:1;"><g transform="translate(122.016663, 54.916994)"><path style="stroke:none" d="M 2.953125 -19.921875 L 11.328125 -19.921875 C 12.566406 -19.921875 13.660156 -19.742188 14.609375 -19.390625 C 15.554688 -19.046875 16.332031 -18.570312 16.9375 -17.96875 C 17.414062 -17.488281 17.785156 -16.929688 18.046875 -16.296875 C 18.316406 -15.660156 18.453125 -14.984375 18.453125 -14.265625 L 18.453125 -14.203125 C 18.453125 -13.367188 18.300781 -12.625 18 -11.96875 C 17.707031 -11.3125 17.300781 -10.742188 16.78125 -10.265625 C 16.257812 -9.796875 15.640625 -9.414062 14.921875 -9.125 C 14.210938 -8.832031 13.441406 -8.628906 12.609375 -8.515625 L 19.1875 0 L 17.3125 0 L 10.953125 -8.25 L 4.4375 -8.25 L 4.4375 0 L 2.953125 0 Z M 11.15625 -9.59375 C 11.988281 -9.59375 12.757812 -9.695312 13.46875 -9.90625 C 14.1875 -10.113281 14.800781 -10.410156 15.3125 -10.796875 C 15.820312 -11.191406 16.222656 -11.664062 16.515625 -12.21875 C 16.816406 -12.78125 16.96875 -13.425781 16.96875 -14.15625 L 16.96875 -14.203125 C 16.96875 -15.554688 16.46875 -16.617188 15.46875 -17.390625 C 14.476562 -18.171875 13.070312 -18.5625 11.25 -18.5625 L 4.4375 -18.5625 L 4.4375 -9.59375 Z M 11.15625 -9.59375 "/></g></g><g style="fill:#beaf87;fill-opacity:1;"><g transform="translate(143.676188, 54.916994)"><path style="stroke:none" d="M 9.453125 -7.890625 L 0.90625 -19.921875 L 2.765625 -19.921875 L 10.21875 -9.21875 L 17.703125 -19.921875 L 19.46875 -19.921875 L 10.9375 -7.921875 L 10.9375 0 L 9.453125 0 Z M 9.453125 -7.890625 "/></g></g><g style="fill:#beaf87;fill-opacity:1;"><g transform="translate(165.136475, 54.916994)"><path style="stroke:none" d=""/></g></g><g style="fill:#beaf87;fill-opacity:1;"><g transform="translate(174.756742, 54.916994)"><path style="stroke:none" d="M 1.359375 -1.109375 L 8.796875 -7.828125 C 9.609375 -8.566406 10.296875 -9.238281 10.859375 -9.84375 C 11.421875 -10.457031 11.875 -11.03125 12.21875 -11.5625 C 12.570312 -12.09375 12.820312 -12.601562 12.96875 -13.09375 C 13.125 -13.582031 13.203125 -14.097656 13.203125 -14.640625 C 13.203125 -15.273438 13.078125 -15.859375 12.828125 -16.390625 C 12.585938 -16.921875 12.265625 -17.375 11.859375 -17.75 C 11.453125 -18.125 10.972656 -18.410156 10.421875 -18.609375 C 9.867188 -18.804688 9.300781 -18.90625 8.71875 -18.90625 C 7.4375 -18.90625 6.347656 -18.585938 5.453125 -17.953125 C 4.566406 -17.316406 3.707031 -16.398438 2.875 -15.203125 L 1.765625 -15.9375 C 2.203125 -16.601562 2.648438 -17.195312 3.109375 -17.71875 C 3.578125 -18.238281 4.09375 -18.679688 4.65625 -19.046875 C 5.21875 -19.421875 5.835938 -19.707031 6.515625 -19.90625 C 7.203125 -20.113281 7.984375 -20.21875 8.859375 -20.21875 C 9.710938 -20.21875 10.5 -20.078125 11.21875 -19.796875 C 11.9375 -19.523438 12.554688 -19.140625 13.078125 -18.640625 C 13.597656 -18.148438 14.007812 -17.570312 14.3125 -16.90625 C 14.625 -16.25 14.78125 -15.53125 14.78125 -14.75 L 14.78125 -14.6875 C 14.78125 -14.007812 14.679688 -13.367188 14.484375 -12.765625 C 14.296875 -12.171875 14 -11.570312 13.59375 -10.96875 C 13.1875 -10.375 12.671875 -9.753906 12.046875 -9.109375 C 11.421875 -8.460938 10.671875 -7.742188 9.796875 -6.953125 L 3.703125 -1.421875 L 14.96875 -1.421875 L 14.96875 0 L 1.359375 0 Z M 1.359375 -1.109375 "/></g></g><g style="fill:#beaf87;fill-opacity:1;"><g transform="translate(192.630875, 54.916994)"><path style="stroke:none" d="M 5.09375 -18.53125 L 1.25 -17.21875 L 0.859375 -18.390625 L 5.40625 -20.078125 L 6.546875 -20.078125 L 6.546875 0 L 5.09375 0 Z M 5.09375 -18.53125 "/></g></g><g style="fill:#beaf87;fill-opacity:1;"><g transform="translate(203.247278, 54.916994)"><path style="stroke:none" d=""/></g></g><g style="fill:#beaf87;fill-opacity:1;"><g transform="translate(212.871945, 54.916994)"><path style="stroke:none" d="M 2.8125 -19.921875 L 5.09375 -19.921875 L 12.359375 -9.046875 L 19.609375 -19.921875 L 21.890625 -19.921875 L 21.890625 0 L 19.640625 0 L 19.640625 -16.140625 L 12.390625 -5.46875 L 12.265625 -5.46875 L 5.015625 -16.109375 L 5.015625 0 L 2.8125 0 Z M 2.8125 -19.921875 "/></g></g><g style="fill:#beaf87;fill-opacity:1;"><g transform="translate(238.658411, 54.916994)"><path style="stroke:none" d="M 10.1875 -20.078125 L 12.296875 -20.078125 L 21.375 0 L 18.953125 0 L 16.625 -5.265625 L 5.78125 -5.265625 L 3.421875 0 L 1.109375 0 Z M 15.75 -7.28125 L 11.21875 -17.453125 L 6.65625 -7.28125 Z M 15.75 -7.28125 "/></g></g><g style="fill:#beaf87;fill-opacity:1;"><g transform="translate(262.224866, 54.916994)"><path style="stroke:none" d="M 9.65625 0.28125 C 8.0625 0.28125 6.601562 0.0195312 5.28125 -0.5 C 3.957031 -1.019531 2.703125 -1.820312 1.515625 -2.90625 L 2.90625 -4.5625 C 3.945312 -3.601562 5 -2.890625 6.0625 -2.421875 C 7.125 -1.960938 8.347656 -1.734375 9.734375 -1.734375 C 11.078125 -1.734375 12.148438 -2.050781 12.953125 -2.6875 C 13.765625 -3.320312 14.171875 -4.132812 14.171875 -5.125 L 14.171875 -5.1875 C 14.171875 -5.632812 14.09375 -6.039062 13.9375 -6.40625 C 13.789062 -6.78125 13.523438 -7.117188 13.140625 -7.421875 C 12.765625 -7.734375 12.238281 -8.007812 11.5625 -8.25 C 10.894531 -8.5 10.039062 -8.738281 9 -8.96875 C 7.851562 -9.21875 6.859375 -9.503906 6.015625 -9.828125 C 5.171875 -10.148438 4.472656 -10.535156 3.921875 -10.984375 C 3.378906 -11.441406 2.972656 -11.972656 2.703125 -12.578125 C 2.441406 -13.191406 2.3125 -13.90625 2.3125 -14.71875 L 2.3125 -14.78125 C 2.3125 -15.550781 2.472656 -16.269531 2.796875 -16.9375 C 3.117188 -17.601562 3.570312 -18.175781 4.15625 -18.65625 C 4.738281 -19.144531 5.429688 -19.523438 6.234375 -19.796875 C 7.035156 -20.078125 7.910156 -20.21875 8.859375 -20.21875 C 10.316406 -20.21875 11.585938 -20.007812 12.671875 -19.59375 C 13.765625 -19.1875 14.828125 -18.578125 15.859375 -17.765625 L 14.546875 -16.03125 C 13.617188 -16.789062 12.679688 -17.335938 11.734375 -17.671875 C 10.796875 -18.015625 9.816406 -18.1875 8.796875 -18.1875 C 7.484375 -18.1875 6.445312 -17.878906 5.6875 -17.265625 C 4.9375 -16.648438 4.5625 -15.882812 4.5625 -14.96875 L 4.5625 -14.921875 C 4.5625 -14.441406 4.632812 -14.015625 4.78125 -13.640625 C 4.9375 -13.273438 5.210938 -12.9375 5.609375 -12.625 C 6.003906 -12.3125 6.550781 -12.023438 7.25 -11.765625 C 7.957031 -11.515625 8.863281 -11.273438 9.96875 -11.046875 C 12.1875 -10.554688 13.820312 -9.875 14.875 -9 C 15.925781 -8.125 16.453125 -6.925781 16.453125 -5.40625 L 16.453125 -5.359375 C 16.453125 -4.503906 16.28125 -3.726562 15.9375 -3.03125 C 15.601562 -2.34375 15.132812 -1.75 14.53125 -1.25 C 13.9375 -0.757812 13.21875 -0.378906 12.375 -0.109375 C 11.539062 0.148438 10.632812 0.28125 9.65625 0.28125 Z M 9.65625 0.28125 "/></g></g><g style="fill:#beaf87;fill-opacity:1;"><g transform="translate(281.522077, 54.916994)"><path style="stroke:none" d="M 8 -17.84375 L 1.28125 -17.84375 L 1.28125 -19.921875 L 16.96875 -19.921875 L 16.96875 -17.84375 L 10.25 -17.84375 L 10.25 0 L 8 0 Z M 8 -17.84375 "/></g></g><g style="fill:#beaf87;fill-opacity:1;"><g transform="translate(300.847746, 54.916994)"><path style="stroke:none" d="M 2.8125 -19.921875 L 17.21875 -19.921875 L 17.21875 -17.875 L 5.0625 -17.875 L 5.0625 -11.078125 L 15.9375 -11.078125 L 15.9375 -9.03125 L 5.0625 -9.03125 L 5.0625 -2.046875 L 17.359375 -2.046875 L 17.359375 0 L 2.8125 0 Z M 2.8125 -19.921875 "/></g></g><g style="fill:#beaf87;fill-opacity:1;"><g transform="translate(320.998808, 54.916994)"><path style="stroke:none" d="M 2.8125 -19.921875 L 11.390625 -19.921875 C 12.617188 -19.921875 13.710938 -19.742188 14.671875 -19.390625 C 15.628906 -19.046875 16.421875 -18.5625 17.046875 -17.9375 C 17.546875 -17.4375 17.925781 -16.851562 18.1875 -16.1875 C 18.457031 -15.53125 18.59375 -14.800781 18.59375 -14 L 18.59375 -13.953125 C 18.59375 -13.117188 18.457031 -12.375 18.1875 -11.71875 C 17.925781 -11.0625 17.550781 -10.488281 17.0625 -10 C 16.582031 -9.519531 16.007812 -9.125 15.34375 -8.8125 C 14.675781 -8.5 13.957031 -8.273438 13.1875 -8.140625 L 19.296875 0 L 16.546875 0 L 10.765625 -7.75 L 5.0625 -7.75 L 5.0625 0 L 2.8125 0 Z M 11.1875 -9.765625 C 11.925781 -9.765625 12.609375 -9.859375 13.234375 -10.046875 C 13.859375 -10.234375 14.398438 -10.503906 14.859375 -10.859375 C 15.316406 -11.210938 15.671875 -11.640625 15.921875 -12.140625 C 16.179688 -12.640625 16.3125 -13.210938 16.3125 -13.859375 L 16.3125 -13.921875 C 16.3125 -15.148438 15.863281 -16.109375 14.96875 -16.796875 C 14.082031 -17.492188 12.832031 -17.84375 11.21875 -17.84375 L 5.0625 -17.84375 L 5.0625 -9.765625 Z M 11.1875 -9.765625 "/></g></g><g style="fill:#beaf87;fill-opacity:1;"><g transform="translate(342.658332, 54.916994)"><path style="stroke:none" d="M 9.65625 0.28125 C 8.0625 0.28125 6.601562 0.0195312 5.28125 -0.5 C 3.957031 -1.019531 2.703125 -1.820312 1.515625 -2.90625 L 2.90625 -4.5625 C 3.945312 -3.601562 5 -2.890625 6.0625 -2.421875 C 7.125 -1.960938 8.347656 -1.734375 9.734375 -1.734375 C 11.078125 -1.734375 12.148438 -2.050781 12.953125 -2.6875 C 13.765625 -3.320312 14.171875 -4.132812 14.171875 -5.125 L 14.171875 -5.1875 C 14.171875 -5.632812 14.09375 -6.039062 13.9375 -6.40625 C 13.789062 -6.78125 13.523438 -7.117188 13.140625 -7.421875 C 12.765625 -7.734375 12.238281 -8.007812 11.5625 -8.25 C 10.894531 -8.5 10.039062 -8.738281 9 -8.96875 C 7.851562 -9.21875 6.859375 -9.503906 6.015625 -9.828125 C 5.171875 -10.148438 4.472656 -10.535156 3.921875 -10.984375 C 3.378906 -11.441406 2.972656 -11.972656 2.703125 -12.578125 C 2.441406 -13.191406 2.3125 -13.90625 2.3125 -14.71875 L 2.3125 -14.78125 C 2.3125 -15.550781 2.472656 -16.269531 2.796875 -16.9375 C 3.117188 -17.601562 3.570312 -18.175781 4.15625 -18.65625 C 4.738281 -19.144531 5.429688 -19.523438 6.234375 -19.796875 C 7.035156 -20.078125 7.910156 -20.21875 8.859375 -20.21875 C 10.316406 -20.21875 11.585938 -20.007812 12.671875 -19.59375 C 13.765625 -19.1875 14.828125 -18.578125 15.859375 -17.765625 L 14.546875 -16.03125 C 13.617188 -16.789062 12.679688 -17.335938 11.734375 -17.671875 C 10.796875 -18.015625 9.816406 -18.1875 8.796875 -18.1875 C 7.484375 -18.1875 6.445312 -17.878906 5.6875 -17.265625 C 4.9375 -16.648438 4.5625 -15.882812 4.5625 -14.96875 L 4.5625 -14.921875 C 4.5625 -14.441406 4.632812 -14.015625 4.78125 -13.640625 C 4.9375 -13.273438 5.210938 -12.9375 5.609375 -12.625 C 6.003906 -12.3125 6.550781 -12.023438 7.25 -11.765625 C 7.957031 -11.515625 8.863281 -11.273438 9.96875 -11.046875 C 12.1875 -10.554688 13.820312 -9.875 14.875 -9 C 15.925781 -8.125 16.453125 -6.925781 16.453125 -5.40625 L 16.453125 -5.359375 C 16.453125 -4.503906 16.28125 -3.726562 15.9375 -3.03125 C 15.601562 -2.34375 15.132812 -1.75 14.53125 -1.25 C 13.9375 -0.757812 13.21875 -0.378906 12.375 -0.109375 C 11.539062 0.148438 10.632812 0.28125 9.65625 0.28125 Z M 9.65625 0.28125 "/></g></g><g style="fill:#beaf87;fill-opacity:1;"><g transform="translate(107.010596, 117.466792)"><path style="stroke:none" d="M 21.046875 -44.875 C 21.210938 -44.882812 21.359375 -44.878906 21.484375 -44.859375 C 21.617188 -44.847656 21.765625 -44.820312 21.921875 -44.78125 C 22.523438 -44.5625 22.945312 -44.234375 23.1875 -43.796875 C 23.4375 -43.367188 23.597656 -42.601562 23.671875 -41.5 C 23.773438 -40.0625 23.492188 -38.351562 22.828125 -36.375 C 22.171875 -34.394531 21.210938 -32.328125 19.953125 -30.171875 C 18.703125 -28.015625 17.21875 -25.945312 15.5 -23.96875 C 14.820312 -23.1875 14.046875 -22.351562 13.171875 -21.46875 C 12.304688 -20.59375 11.519531 -19.863281 10.8125 -19.28125 C 10.113281 -18.695312 9.628906 -18.394531 9.359375 -18.375 C 9.148438 -18.363281 8.941406 -18.125 8.734375 -17.65625 C 8.535156 -17.195312 8.207031 -16.101562 7.75 -14.375 C 7.1875 -12.425781 6.691406 -10.347656 6.265625 -8.140625 C 5.835938 -5.929688 5.492188 -3.8125 5.234375 -1.78125 C 4.984375 0.25 4.828125 2.03125 4.765625 3.5625 C 4.710938 5.101562 4.789062 6.210938 5 6.890625 C 5.207031 7.515625 5.398438 7.976562 5.578125 8.28125 C 5.804688 8.476562 6.40625 8.316406 7.375 7.796875 C 8.351562 7.273438 9.394531 6.578125 10.5 5.703125 C 11.15625 5.242188 12.039062 4.445312 13.15625 3.3125 C 14.269531 2.175781 15.316406 1.066406 16.296875 -0.015625 C 17.367188 -1.265625 18.273438 -2.347656 19.015625 -3.265625 C 19.753906 -4.191406 20.503906 -5.238281 21.265625 -6.40625 C 22.023438 -7.570312 22.976562 -9.070312 24.125 -10.90625 C 24.800781 -11.894531 25.28125 -12.46875 25.5625 -12.625 C 25.84375 -12.78125 26.128906 -12.628906 26.421875 -12.171875 C 26.722656 -11.816406 26.421875 -10.835938 25.515625 -9.234375 C 24.617188 -7.640625 23.375 -5.753906 21.78125 -3.578125 C 20.1875 -1.398438 18.453125 0.726562 16.578125 2.8125 C 13.429688 6.332031 10.820312 8.675781 8.75 9.84375 C 6.6875 11.019531 4.988281 11.125 3.65625 10.15625 C 2.3125 9.195312 1.546875 7.1875 1.359375 4.125 C 1.171875 1.0625 1.535156 -2.820312 2.453125 -7.53125 C 3.378906 -12.238281 4.832031 -17.488281 6.8125 -23.28125 C 8.21875 -27.476562 9.65625 -31.003906 11.125 -33.859375 C 12.59375 -36.710938 14.160156 -39.101562 15.828125 -41.03125 C 17.890625 -43.394531 19.628906 -44.675781 21.046875 -44.875 Z M 21.140625 -42.265625 C 20.878906 -42.242188 20.628906 -42.117188 20.390625 -41.890625 C 19.367188 -41.234375 18.234375 -39.9375 16.984375 -38 C 15.742188 -36.0625 14.519531 -33.707031 13.3125 -30.9375 C 12.101562 -28.175781 11 -25.203125 10 -22.015625 C 9.832031 -21.367188 9.972656 -21.234375 10.421875 -21.609375 C 10.867188 -21.984375 11.882812 -23.039062 13.46875 -24.78125 C 15.625 -27.269531 17.394531 -29.8125 18.78125 -32.40625 C 20.164062 -35 21.039062 -37.363281 21.40625 -39.5 C 21.601562 -40.570312 21.675781 -41.320312 21.625 -41.75 C 21.570312 -42.175781 21.410156 -42.347656 21.140625 -42.265625 Z M 21.140625 -42.265625 "/></g></g><g style="fill:#beaf87;fill-opacity:1;"><g transform="translate(130.432446, 115.836478)"><path style="stroke:none" d="M 2.75 -0.578125 C 1.5625 -1.617188 1.425781 -3.972656 2.34375 -7.640625 C 3.15625 -11.035156 4.0625 -12.789062 5.0625 -12.90625 C 5.644531 -13.050781 6.066406 -12.894531 6.328125 -12.4375 C 6.597656 -11.976562 6.625 -11.453125 6.40625 -10.859375 C 6.21875 -10.472656 6.007812 -9.832031 5.78125 -8.9375 C 5.550781 -8.050781 5.347656 -7.148438 5.171875 -6.234375 C 4.992188 -5.316406 4.867188 -4.597656 4.796875 -4.078125 L 4.671875 -2.640625 L 5.546875 -3.796875 C 7.617188 -6.753906 9.148438 -8.898438 10.140625 -10.234375 C 11.128906 -11.578125 11.847656 -12.425781 12.296875 -12.78125 C 12.753906 -13.132812 13.148438 -13.242188 13.484375 -13.109375 C 13.691406 -13.066406 13.820312 -12.875 13.875 -12.53125 C 13.925781 -12.195312 13.941406 -11.421875 13.921875 -10.203125 C 13.921875 -9.453125 13.921875 -8.664062 13.921875 -7.84375 C 13.929688 -7.019531 13.925781 -6.394531 13.90625 -5.96875 C 13.945312 -5.28125 14.007812 -4.867188 14.09375 -4.734375 C 14.1875 -4.609375 14.5 -4.566406 15.03125 -4.609375 C 15.445312 -4.703125 16.347656 -5.070312 17.734375 -5.71875 C 19.117188 -6.375 20.679688 -7.160156 22.421875 -8.078125 C 24.160156 -8.992188 25.71875 -9.875 27.09375 -10.71875 C 28.507812 -11.601562 29.488281 -12.117188 30.03125 -12.265625 C 30.582031 -12.410156 30.878906 -12.195312 30.921875 -11.625 C 30.941406 -11.257812 30.675781 -10.816406 30.125 -10.296875 C 29.582031 -9.773438 28.554688 -9.078125 27.046875 -8.203125 C 25.546875 -7.328125 23.34375 -6.101562 20.4375 -4.53125 C 18.800781 -3.675781 17.519531 -3.039062 16.59375 -2.625 C 15.675781 -2.21875 14.945312 -2.007812 14.40625 -2 C 13.875 -1.988281 13.34375 -2.09375 12.8125 -2.3125 C 12.25 -2.707031 11.78125 -3.300781 11.40625 -4.09375 C 11.03125 -4.882812 10.894531 -5.65625 11 -6.40625 C 11.0625 -7.039062 11.015625 -7.351562 10.859375 -7.34375 C 10.804688 -7.34375 10.5625 -7.050781 10.125 -6.46875 C 9.6875 -5.882812 9.207031 -5.175781 8.6875 -4.34375 C 7.289062 -2.238281 6.160156 -0.898438 5.296875 -0.328125 C 4.441406 0.234375 3.59375 0.148438 2.75 -0.578125 Z M 2.75 -0.578125 "/></g></g><g style="fill:#beaf87;fill-opacity:1;"><g transform="translate(158.206245, 113.903239)"><path style="stroke:none" d="M 2.171875 -0.875 C 1.941406 -1.113281 1.929688 -1.476562 2.140625 -1.96875 C 2.347656 -2.46875 2.832031 -3.242188 3.59375 -4.296875 L 5.359375 -6.5 L 3.828125 -8.859375 C 3.046875 -10.171875 2.632812 -11.078125 2.59375 -11.578125 C 2.5625 -12.085938 2.972656 -12.375 3.828125 -12.4375 C 4.242188 -12.46875 4.578125 -12.367188 4.828125 -12.140625 C 5.085938 -11.921875 5.488281 -11.40625 6.03125 -10.59375 C 6.375 -10.09375 6.691406 -9.65625 6.984375 -9.28125 C 7.285156 -8.90625 7.460938 -8.71875 7.515625 -8.71875 C 7.566406 -8.71875 7.816406 -8.90625 8.265625 -9.28125 C 8.710938 -9.664062 9.234375 -10.113281 9.828125 -10.625 C 11.035156 -11.65625 11.9375 -12.253906 12.53125 -12.421875 C 13.132812 -12.597656 13.484375 -12.375 13.578125 -11.75 C 13.710938 -11.332031 13.550781 -10.972656 13.09375 -10.671875 C 12.632812 -10.441406 12.078125 -10.023438 11.421875 -9.421875 C 10.773438 -8.828125 10.207031 -8.257812 9.71875 -7.71875 C 9.226562 -7.175781 8.988281 -6.851562 9 -6.75 C 9.164062 -6.5 9.726562 -6.03125 10.6875 -5.34375 C 11.75 -4.519531 12.785156 -4.117188 13.796875 -4.140625 C 14.265625 -4.128906 14.742188 -4.203125 15.234375 -4.359375 C 15.734375 -4.515625 16.554688 -4.910156 17.703125 -5.546875 C 18.847656 -6.191406 20.644531 -7.238281 23.09375 -8.6875 C 25.175781 -9.9375 27.035156 -11.003906 28.671875 -11.890625 C 30.304688 -12.773438 31.175781 -13.195312 31.28125 -13.15625 C 31.613281 -13.007812 31.78125 -12.765625 31.78125 -12.421875 C 31.78125 -12.078125 31.601562 -11.738281 31.25 -11.40625 C 31.050781 -11.238281 30.457031 -10.828125 29.46875 -10.171875 C 28.488281 -9.515625 27.296875 -8.765625 25.890625 -7.921875 C 24.484375 -7.078125 23.066406 -6.222656 21.640625 -5.359375 C 20.222656 -4.503906 18.988281 -3.785156 17.9375 -3.203125 C 16.894531 -2.617188 16.222656 -2.265625 15.921875 -2.140625 C 15.359375 -1.890625 14.609375 -1.769531 13.671875 -1.78125 C 12.742188 -1.800781 11.976562 -1.894531 11.375 -2.0625 C 11.113281 -2.144531 10.707031 -2.335938 10.15625 -2.640625 C 9.601562 -2.953125 9.082031 -3.28125 8.59375 -3.625 L 6.90625 -4.765625 L 5.125 -2.75 C 4.34375 -1.84375 3.722656 -1.253906 3.265625 -0.984375 C 2.816406 -0.710938 2.453125 -0.675781 2.171875 -0.875 Z M 2.171875 -0.875 "/></g></g><g style="fill:#beaf87;fill-opacity:1;"><g transform="translate(186.533925, 111.931447)"><path style="stroke:none" d="M 2.75 -0.578125 C 1.5625 -1.617188 1.425781 -3.972656 2.34375 -7.640625 C 3.15625 -11.035156 4.0625 -12.789062 5.0625 -12.90625 C 5.644531 -13.050781 6.066406 -12.894531 6.328125 -12.4375 C 6.597656 -11.976562 6.625 -11.453125 6.40625 -10.859375 C 6.21875 -10.472656 6.007812 -9.832031 5.78125 -8.9375 C 5.550781 -8.050781 5.347656 -7.148438 5.171875 -6.234375 C 4.992188 -5.316406 4.867188 -4.597656 4.796875 -4.078125 L 4.671875 -2.640625 L 5.546875 -3.796875 C 7.617188 -6.753906 9.148438 -8.898438 10.140625 -10.234375 C 11.128906 -11.578125 11.847656 -12.425781 12.296875 -12.78125 C 12.753906 -13.132812 13.148438 -13.242188 13.484375 -13.109375 C 13.691406 -13.066406 13.820312 -12.875 13.875 -12.53125 C 13.925781 -12.195312 13.941406 -11.421875 13.921875 -10.203125 C 13.921875 -9.453125 13.921875 -8.664062 13.921875 -7.84375 C 13.929688 -7.019531 13.925781 -6.394531 13.90625 -5.96875 C 13.945312 -5.28125 14.007812 -4.867188 14.09375 -4.734375 C 14.1875 -4.609375 14.5 -4.566406 15.03125 -4.609375 C 15.445312 -4.703125 16.347656 -5.070312 17.734375 -5.71875 C 19.117188 -6.375 20.679688 -7.160156 22.421875 -8.078125 C 24.160156 -8.992188 25.71875 -9.875 27.09375 -10.71875 C 28.507812 -11.601562 29.488281 -12.117188 30.03125 -12.265625 C 30.582031 -12.410156 30.878906 -12.195312 30.921875 -11.625 C 30.941406 -11.257812 30.675781 -10.816406 30.125 -10.296875 C 29.582031 -9.773438 28.554688 -9.078125 27.046875 -8.203125 C 25.546875 -7.328125 23.34375 -6.101562 20.4375 -4.53125 C 18.800781 -3.675781 17.519531 -3.039062 16.59375 -2.625 C 15.675781 -2.21875 14.945312 -2.007812 14.40625 -2 C 13.875 -1.988281 13.34375 -2.09375 12.8125 -2.3125 C 12.25 -2.707031 11.78125 -3.300781 11.40625 -4.09375 C 11.03125 -4.882812 10.894531 -5.65625 11 -6.40625 C 11.0625 -7.039062 11.015625 -7.351562 10.859375 -7.34375 C 10.804688 -7.34375 10.5625 -7.050781 10.125 -6.46875 C 9.6875 -5.882812 9.207031 -5.175781 8.6875 -4.34375 C 7.289062 -2.238281 6.160156 -0.898438 5.296875 -0.328125 C 4.441406 0.234375 3.59375 0.148438 2.75 -0.578125 Z M 2.75 -0.578125 "/></g></g><g style="fill:#beaf87;fill-opacity:1;"><g transform="translate(214.307724, 109.998208)"><path style="stroke:none" d="M 3.34375 -0.875 C 3.132812 -1.070312 2.96875 -1.3125 2.84375 -1.59375 C 2.71875 -1.875 2.65625 -2.390625 2.65625 -3.140625 C 2.601562 -4.554688 2.671875 -5.988281 2.859375 -7.4375 C 3.046875 -8.882812 3.316406 -10.132812 3.671875 -11.1875 C 4.023438 -12.25 4.410156 -12.867188 4.828125 -13.046875 C 5.273438 -13.359375 5.753906 -13.289062 6.265625 -12.84375 C 6.660156 -12.488281 6.847656 -12.070312 6.828125 -11.59375 C 6.804688 -11.113281 6.65625 -9.914062 6.375 -8 L 6.171875 -7.203125 L 6.84375 -8.03125 C 7.03125 -8.257812 7.320312 -8.625 7.71875 -9.125 C 8.113281 -9.632812 8.476562 -10.132812 8.8125 -10.625 C 9.476562 -11.570312 10.21875 -12.328125 11.03125 -12.890625 C 11.84375 -13.453125 12.519531 -13.695312 13.0625 -13.625 C 13.582031 -13.5625 14.140625 -13.148438 14.734375 -12.390625 C 15.253906 -11.578125 15.816406 -11.082031 16.421875 -10.90625 C 16.847656 -10.789062 17.257812 -10.707031 17.65625 -10.65625 C 18.0625 -10.601562 18.660156 -10.644531 19.453125 -10.78125 C 20.242188 -10.914062 21.390625 -11.140625 22.890625 -11.453125 C 24.046875 -11.742188 25.082031 -11.957031 26 -12.09375 C 26.914062 -12.238281 27.457031 -12.289062 27.625 -12.25 C 28.039062 -12.175781 28.265625 -11.878906 28.296875 -11.359375 C 28.316406 -11.046875 28.253906 -10.828125 28.109375 -10.703125 C 27.972656 -10.585938 27.566406 -10.453125 26.890625 -10.296875 C 26.460938 -10.210938 25.882812 -10.082031 25.15625 -9.90625 C 24.425781 -9.726562 23.773438 -9.535156 23.203125 -9.328125 C 21.648438 -8.898438 20.238281 -8.640625 18.96875 -8.546875 C 17.695312 -8.460938 16.660156 -8.5 15.859375 -8.65625 C 15.210938 -8.78125 14.691406 -8.984375 14.296875 -9.265625 C 13.910156 -9.554688 13.285156 -10.226562 12.421875 -11.28125 C 12.359375 -11.425781 12.019531 -11.132812 11.40625 -10.40625 C 10.789062 -9.675781 10.097656 -8.753906 9.328125 -7.640625 C 8.554688 -6.523438 7.835938 -5.414062 7.171875 -4.3125 C 6.554688 -3.269531 5.992188 -2.382812 5.484375 -1.65625 C 4.984375 -0.925781 4.648438 -0.554688 4.484375 -0.546875 C 4.117188 -0.523438 3.738281 -0.632812 3.34375 -0.875 Z M 3.34375 -0.875 "/></g></g><g style="fill:#beaf87;fill-opacity:1;"><g transform="translate(239.074716, 108.274263)"><path style="stroke:none" d="M 5.0625 -12.984375 C 5.695312 -13.035156 6.082031 -12.828125 6.21875 -12.359375 C 6.351562 -11.890625 6.273438 -11.039062 5.984375 -9.8125 C 5.816406 -9.257812 5.679688 -8.554688 5.578125 -7.703125 C 5.484375 -6.847656 5.429688 -6.101562 5.421875 -5.46875 C 5.429688 -4.5625 5.460938 -3.953125 5.515625 -3.640625 C 5.566406 -3.335938 5.703125 -3.082031 5.921875 -2.875 C 6.304688 -2.644531 6.804688 -2.679688 7.421875 -2.984375 C 8.035156 -3.296875 8.9375 -4.019531 10.125 -5.15625 C 11.320312 -6.300781 12.960938 -7.957031 15.046875 -10.125 C 15.890625 -10.96875 16.644531 -11.703125 17.3125 -12.328125 C 17.988281 -12.960938 18.351562 -13.285156 18.40625 -13.296875 C 19.78125 -13.390625 20.191406 -10.867188 19.640625 -5.734375 C 19.492188 -4.722656 19.375 -3.773438 19.28125 -2.890625 C 19.1875 -2.003906 19.117188 -1.457031 19.078125 -1.25 L 18.890625 -0.4375 L 19.78125 -1.296875 C 20.6875 -2.203125 21.914062 -3.265625 23.46875 -4.484375 C 25.019531 -5.703125 26.644531 -6.875 28.34375 -8 C 30.050781 -9.132812 31.578125 -10.066406 32.921875 -10.796875 C 34.273438 -11.535156 35.160156 -11.890625 35.578125 -11.859375 C 36.222656 -11.859375 36.46875 -11.613281 36.3125 -11.125 C 36.164062 -10.632812 35.660156 -10.144531 34.796875 -9.65625 C 34.390625 -9.414062 33.578125 -8.894531 32.359375 -8.09375 C 31.140625 -7.289062 29.875 -6.441406 28.5625 -5.546875 C 26.738281 -4.328125 25.035156 -3.046875 23.453125 -1.703125 C 21.878906 -0.367188 20.597656 0.816406 19.609375 1.859375 C 18.617188 2.910156 18.035156 3.703125 17.859375 4.234375 C 17.773438 4.566406 17.585938 5.3125 17.296875 6.46875 C 17.015625 7.632812 16.707031 8.863281 16.375 10.15625 C 15.34375 14.351562 14.066406 18.109375 12.546875 21.421875 C 11.023438 24.742188 9.40625 27.378906 7.6875 29.328125 C 5.976562 31.273438 4.300781 32.304688 2.65625 32.421875 C 1.96875 32.472656 1.347656 32.300781 0.796875 31.90625 C 0.503906 31.601562 0.316406 31.296875 0.234375 30.984375 C 0.160156 30.679688 0.117188 30.070312 0.109375 29.15625 C 0.0976562 28.269531 0.1875 27.472656 0.375 26.765625 C 0.570312 26.066406 0.96875 25.003906 1.5625 23.578125 C 3.84375 18.285156 7.421875 12.660156 12.296875 6.703125 C 12.992188 5.859375 13.5 5.195312 13.8125 4.71875 C 14.125 4.25 14.363281 3.753906 14.53125 3.234375 C 14.707031 2.710938 14.90625 2 15.125 1.09375 C 15.28125 0.445312 15.453125 -0.410156 15.640625 -1.484375 C 15.828125 -2.566406 16.015625 -3.640625 16.203125 -4.703125 C 16.390625 -5.773438 16.535156 -6.6875 16.640625 -7.4375 C 16.753906 -8.1875 16.785156 -8.5625 16.734375 -8.5625 C 16.734375 -8.613281 16.398438 -8.304688 15.734375 -7.640625 C 15.066406 -6.984375 14.257812 -6.203125 13.3125 -5.296875 C 10.976562 -2.910156 9.195312 -1.378906 7.96875 -0.703125 C 6.75 -0.0351562 5.585938 -0.0078125 4.484375 -0.625 C 2.609375 -1.769531 2 -4.429688 2.65625 -8.609375 C 3.144531 -11.453125 3.945312 -12.910156 5.0625 -12.984375 Z M 13.34375 8.9375 L 12.515625 9.78125 C 12.171875 10.125 11.597656 10.851562 10.796875 11.96875 C 10.003906 13.09375 9.175781 14.300781 8.3125 15.59375 C 7.457031 16.894531 6.722656 18.078125 6.109375 19.140625 C 5.441406 20.242188 4.8125 21.460938 4.21875 22.796875 C 3.625 24.140625 3.132812 25.367188 2.75 26.484375 C 2.375 27.597656 2.207031 28.394531 2.25 28.875 L 2.328125 29.96875 L 3.53125 29.15625 C 3.894531 28.925781 4.296875 28.585938 4.734375 28.140625 C 5.171875 27.691406 5.539062 27.238281 5.84375 26.78125 C 7.144531 25 8.378906 22.789062 9.546875 20.15625 C 10.710938 17.53125 11.695312 14.757812 12.5 11.84375 Z M 13.34375 8.9375 "/></g></g></g></svg>