<?xml version="1.0" encoding="UTF-8"?>
<svg xmlns="http://www.w3.org/2000/svg" width="342" height="78" viewBox="0 0 342 78" fill="none">
  <path fill-rule="evenodd" clip-rule="evenodd" d="M33.547 1.28427C19.3094 3.57819 7.54709 13.5185 3.00464 27.0953C0.328543 35.0942 0.331865 43.5764 3.01416 51.5936C3.78825 53.907 5.26978 57.2 6.24957 58.7849L6.75928 59.6092L18.6784 47.7039C25.8475 40.5429 30.8933 35.3293 31.3395 34.6217C32.2975 33.102 32.612 31.6624 32.3208 30.1273C31.8675 27.7375 29.9994 26.3921 26.909 26.2298C24.4488 26.1007 23.1002 26.5493 21.5549 28.0109C20.7533 28.7688 20.3072 29.046 20.0955 28.9176C19.9276 28.816 18.5761 27.8017 17.0919 26.6638L14.3937 24.5948L14.8442 23.962C16.2086 22.0458 19.3978 20.053 22.2787 19.3161C24.3859 18.7772 28.2387 18.7307 30.3112 19.2194C33.8998 20.0652 37.3247 22.6957 38.8361 25.7668C40.9753 30.1129 40.2734 35.0437 36.8285 39.8713C35.9689 41.0759 26.4009 50.7254 21.7564 55.0719C20.9953 55.7842 20.3725 56.4516 20.3725 56.5547C20.3725 56.6579 24.4577 56.7425 29.4507 56.7425H38.529V55.1926V53.6426H33.0572H27.5853L28.6758 52.5355L29.7663 51.4284H35.2546H40.7432V55.0819V58.7353L27.8454 58.7338L14.9477 58.7324L24.8326 48.9359C31.2376 42.5882 35.006 38.6863 35.5374 37.8522C37.3121 35.0658 38.0691 32.1482 37.6748 29.6149C36.6339 22.9286 29.416 19.2444 22.0331 21.6311C20.3649 22.1703 17.955 23.5856 17.7725 24.1332C17.7269 24.2698 18.2391 24.7961 18.9102 25.3029L20.1309 26.2243L20.9028 25.6355C23.371 23.753 27.7983 23.4791 30.89 25.0177C32.3385 25.7387 33.3407 26.7039 34.0574 28.0685C34.5587 29.0228 34.6395 29.4506 34.6428 31.1684C34.6466 32.9787 34.5811 33.2929 33.9268 34.6004C33.5309 35.392 32.5858 36.7604 31.8268 37.6414C31.068 38.5222 25.3905 44.2355 19.2105 50.3375L7.97377 61.4318L8.69295 62.462C9.92405 64.2254 15.0561 69.1862 17.2726 70.7549C21.4497 73.7116 27.0576 76.0952 32.2453 77.1188C35.2863 77.7186 40.5125 77.9323 43.5085 77.5789C53.2604 76.4288 62.0216 71.918 68.2085 64.8622C80.1763 51.2132 81.1898 31.6732 70.694 16.9421C69.9347 15.8764 68.8203 14.4566 68.2176 13.7868L67.1216 12.569L57.8073 21.8678L48.493 31.1664V33.3804V35.5941L55.5784 28.5113L62.6639 21.4285V40.0819V58.7353H58.789H54.9142V47.7586V36.7816L56.0164 35.6358L57.1189 34.4897L57.1235 45.6258L57.1284 56.762L58.7337 56.6969L60.339 56.6318L60.3959 41.7966L60.4526 26.9614L53.3658 34.0455L46.2787 41.1297V35.4856V29.8418L55.8127 20.3059L65.3464 10.7702L63.7285 9.47508C58.8278 5.55216 53.3806 2.98168 47.0302 1.59537C44.1487 0.966309 36.6013 0.792272 33.547 1.28427ZM172.267 21.5893C171.963 21.7462 171.54 22.2223 171.327 22.6468C170.976 23.3451 170.94 24.3096 170.939 32.7737L170.939 42.1287H172.932H174.924V35.0999V28.0711L181.955 35.0895C185.821 38.9498 189.266 42.2124 189.609 42.3402C190.418 42.6409 191.14 42.4487 191.787 41.7603L192.306 41.2078L192.37 31.3721L192.434 21.5366H190.436H188.437L188.379 28.5401L188.32 35.5439L181.201 28.539C173.779 21.2365 173.449 20.9797 172.267 21.5893ZM107.391 21.7894C104.614 22.2482 101.676 24.351 100.551 26.6859C98.6966 30.5324 99.1663 35.359 101.707 38.5698C102.785 39.9318 104.596 41.1828 106.214 41.6823C107.521 42.0862 108.268 42.1287 114.057 42.1287H120.455V40.1512V38.1735L114.089 38.1031C108.057 38.0362 107.677 38.0074 106.837 37.5537C106.35 37.2902 105.633 36.7422 105.243 36.3359C102.856 33.8445 103.044 29.112 105.611 27.0787C107.193 25.8257 107.734 25.7436 114.394 25.7436H120.455V23.6401V21.5366L114.532 21.5625C111.274 21.5766 108.061 21.6789 107.391 21.7894ZM136.547 21.6818C136.465 21.7642 136.397 26.3985 136.397 31.9803V42.1287H145.697H154.997V40.1359V38.1431H147.8H140.604V35.8182V33.4933H147.477H154.351L154.286 31.7773L154.222 30.0613L147.413 30.0028L140.604 29.9441V27.844V25.7436H147.809H155.013L154.95 23.6954L154.886 21.6473L145.792 21.5895C140.79 21.5578 136.63 21.5992 136.547 21.6818ZM207.695 23.6401V25.7436H211.459H215.223V33.9361V42.1287H217.327H219.43V33.9361V25.7436H223.194H226.958V23.6401V21.5366H217.327H207.695V23.6401ZM242.099 21.8578C242.031 22.0345 242.018 25.1982 242.069 28.888C242.17 36.2642 242.265 36.8859 243.586 38.8796C244.921 40.8967 247.199 41.9739 251.014 42.3929C256.193 42.9619 260.933 41.6048 262.707 39.0452C263.036 38.5689 263.517 37.5484 263.775 36.7774C264.21 35.4743 264.244 34.8909 264.255 28.5113L264.268 21.6473H262.275H260.282L260.172 28.5113C260.068 34.9257 260.031 35.4261 259.606 36.1497C258.636 37.801 256.985 38.3646 253.115 38.3646C250.391 38.3646 248.817 37.9924 247.752 37.0963C246.414 35.9697 246.354 35.6176 246.265 28.2345L246.183 21.5366H244.203C242.676 21.5366 242.194 21.6103 242.099 21.8578ZM280.69 21.6842C280.609 21.7653 280.542 26.3985 280.542 31.9803V42.1287H282.646H284.749V39.361V36.5932H289.471H294.192L296.689 39.361L299.185 42.1287H302.094H305.003L301.941 39.06L298.878 35.9914L299.658 35.5089C301.652 34.2769 302.736 32.0452 302.736 29.1756C302.736 25.1322 300.615 22.4789 296.822 21.7777C295.41 21.5166 280.942 21.4327 280.69 21.6842ZM315.669 21.8133C315.762 21.9657 318.209 24.8519 321.107 28.2275L326.376 34.3648V38.2468V42.1287H328.48H330.583V38.2419V34.3551L336.008 28.0574C338.992 24.5935 341.433 21.7064 341.433 21.6411C341.433 21.576 340.268 21.5505 338.843 21.5848L336.254 21.6473L332.477 26.1189C330.401 28.5782 328.652 30.59 328.591 30.5896C328.53 30.5889 326.985 28.7981 325.159 26.6095C323.332 24.421 321.609 22.3844 321.33 22.0835C320.845 21.5602 320.707 21.5366 318.162 21.5366C316.091 21.5366 315.538 21.5979 315.669 21.8133ZM284.749 29.4105V33.0772L290.562 33.0086C295.934 32.9451 296.433 32.9056 297.149 32.4894C298.162 31.9004 298.698 30.8048 298.698 29.3197C298.699 27.7456 298.184 26.7143 297.127 26.1753C296.352 25.7799 295.795 25.7436 290.515 25.7436H284.749V29.4105ZM82.0066 51.8695C81.43 52.102 80.8204 52.9301 80.8204 53.4805C80.8204 54.2863 81.7916 54.9337 83.2468 55.0985C83.9985 55.1835 84.7635 55.4031 84.9471 55.5865C85.9113 56.551 83.0645 57.0425 82.0478 56.0871C81.4918 55.565 80.8204 55.5958 80.8204 56.1433C80.8204 56.3087 81.0775 56.6854 81.3919 56.9808C81.8919 57.4504 82.1711 57.5175 83.6252 57.5175C85.1718 57.5175 85.3244 57.4743 85.8217 56.8962C86.9585 55.5745 86.2782 54.4311 84.2153 54.1962C82.3181 53.9803 82.1133 53.8944 82.1915 53.3468C82.2495 52.9385 82.4246 52.8579 83.3767 52.8023C84.2516 52.7512 84.6085 52.8364 85.0232 53.196C85.4678 53.5817 85.6005 53.6074 85.8518 53.3561C86.8688 52.3389 83.7915 51.149 82.0066 51.8695ZM87.7398 51.7929C87.3504 51.9549 87.3953 52.4622 87.8134 52.6225C88.006 52.6965 88.5042 52.7569 88.9205 52.7569H89.6773V55.0582C89.6773 56.9575 89.7388 57.3831 90.0293 57.4945C90.6759 57.7427 90.7844 57.3957 90.7844 55.081V52.7813L91.8361 52.7138C92.7178 52.6571 92.8879 52.5747 92.8879 52.2034C92.8879 51.79 92.7265 51.7579 90.4523 51.7191C89.1127 51.6963 87.8922 51.7295 87.7398 51.7929Z" fill="white"></path>
  <path d="M265.299 62.0005C264.792 62.0005 264.322 61.9071 263.889 61.7205C263.462 61.5271 263.089 61.2671 262.769 60.9405C262.455 60.6071 262.209 60.2138 262.029 59.7605C261.855 59.3071 261.769 58.8171 261.769 58.2905C261.769 57.7571 261.855 57.2705 262.029 56.8305C262.209 56.3905 262.455 56.0171 262.769 55.7105C263.089 55.3971 263.462 55.1571 263.889 54.9905C264.322 54.8171 264.792 54.7305 265.299 54.7305H269.239V56.0005H265.299C264.972 56.0005 264.669 56.0605 264.389 56.1805C264.115 56.2938 263.879 56.4538 263.679 56.6605C263.479 56.8671 263.322 57.1138 263.209 57.4005C263.095 57.6871 263.039 58.0038 263.039 58.3505C263.039 58.6905 263.095 59.0071 263.209 59.3005C263.322 59.5938 263.479 59.8471 263.679 60.0605C263.879 60.2671 264.115 60.4305 264.389 60.5505C264.669 60.6705 264.972 60.7305 265.299 60.7305H268.409V58.8405H265.129V57.7705H269.689V62.0005H265.299Z" fill="white"></path>
  <path d="M246.428 56.6806V62.0006H245.218V55.4006C245.218 55.1673 245.275 54.984 245.388 54.8506C245.508 54.7106 245.668 54.6406 245.868 54.6406C245.962 54.6406 246.052 54.6606 246.138 54.7006C246.225 54.7406 246.315 54.8073 246.408 54.9006L251.538 59.9906V54.6706H252.748V61.3306C252.748 61.5706 252.688 61.7573 252.568 61.8906C252.455 62.024 252.305 62.0906 252.118 62.0906C251.912 62.0906 251.718 62.0006 251.538 61.8206L246.428 56.6806Z" fill="white"></path>
  <path d="M234.652 62.0005V54.7305H235.922V62.0005H234.652Z" fill="white"></path>
  <path d="M217.793 62.0005V54.7305H222.003C222.516 54.7305 222.99 54.8171 223.423 54.9905C223.856 55.1638 224.23 55.4071 224.543 55.7205C224.856 56.0338 225.1 56.4105 225.273 56.8505C225.453 57.2838 225.543 57.7638 225.543 58.2905C225.543 58.8171 225.453 59.3071 225.273 59.7605C225.1 60.2138 224.856 60.6071 224.543 60.9405C224.23 61.2671 223.856 61.5271 223.423 61.7205C222.99 61.9071 222.516 62.0005 222.003 62.0005H217.793ZM222.003 60.7305C222.33 60.7305 222.63 60.6705 222.903 60.5505C223.183 60.4305 223.423 60.2671 223.623 60.0605C223.83 59.8471 223.99 59.5938 224.103 59.3005C224.216 59.0071 224.273 58.6905 224.273 58.3505C224.273 58.0105 224.216 57.6971 224.103 57.4105C223.99 57.1171 223.83 56.8671 223.623 56.6605C223.423 56.4538 223.183 56.2938 222.903 56.1805C222.63 56.0605 222.33 56.0005 222.003 56.0005H219.053V60.7305H222.003Z" fill="white"></path>
  <path d="M202.243 56.6806V62.0006H201.033V55.4006C201.033 55.1673 201.089 54.984 201.203 54.8506C201.323 54.7106 201.483 54.6406 201.683 54.6406C201.776 54.6406 201.866 54.6606 201.953 54.7006C202.039 54.7406 202.129 54.8073 202.223 54.9006L207.353 59.9906V54.6706H208.563V61.3306C208.563 61.5706 208.503 61.7573 208.383 61.8906C208.269 62.024 208.119 62.0906 207.933 62.0906C207.726 62.0906 207.533 62.0006 207.353 61.8206L202.243 56.6806Z" fill="white"></path>
  <path d="M185.475 62.0005V54.7305H191.965V56.0005H186.735V60.7305H191.975V62.0005H185.475ZM186.735 58.8405V57.7705H191.695V58.8405H186.735Z" fill="white"></path>
  <path d="M170.404 62.0005V54.7305H171.674V60.7305H176.564V62.0005H170.404Z" fill="white"></path>
</svg>
