<svg width="35" height="35" viewBox="0 0 35 35" fill="none" xmlns="http://www.w3.org/2000/svg">
<rect x="0.5" y="0.5" width="34" height="34" rx="17" fill="#F3F3F3"/>
<rect x="0.5" y="0.5" width="34" height="34" rx="17" stroke="#2DD4DA"/>
<path d="M15.0625 8.5625H10.1875C9.75652 8.5625 9.3432 8.7337 9.03845 9.03845C8.7337 9.3432 8.5625 9.75652 8.5625 10.1875V15.0625C8.5625 15.4935 8.7337 15.9068 9.03845 16.2115C9.3432 16.5163 9.75652 16.6875 10.1875 16.6875H15.0625C15.4935 16.6875 15.9068 16.5163 16.2115 16.2115C16.5163 15.9068 16.6875 15.4935 16.6875 15.0625V10.1875C16.6875 9.75652 16.5163 9.3432 16.2115 9.03845C15.9068 8.7337 15.4935 8.5625 15.0625 8.5625ZM15.0625 15.0625H10.1875V10.1875H15.0625V15.0625ZM15.0625 18.3125H10.1875C9.75652 18.3125 9.3432 18.4837 9.03845 18.7885C8.7337 19.0932 8.5625 19.5065 8.5625 19.9375V24.8125C8.5625 25.2435 8.7337 25.6568 9.03845 25.9615C9.3432 26.2663 9.75652 26.4375 10.1875 26.4375H15.0625C15.4935 26.4375 15.9068 26.2663 16.2115 25.9615C16.5163 25.6568 16.6875 25.2435 16.6875 24.8125V19.9375C16.6875 19.5065 16.5163 19.0932 16.2115 18.7885C15.9068 18.4837 15.4935 18.3125 15.0625 18.3125ZM15.0625 24.8125H10.1875V19.9375H15.0625V24.8125ZM24.8125 8.5625H19.9375C19.5065 8.5625 19.0932 8.7337 18.7885 9.03845C18.4837 9.3432 18.3125 9.75652 18.3125 10.1875V15.0625C18.3125 15.4935 18.4837 15.9068 18.7885 16.2115C19.0932 16.5163 19.5065 16.6875 19.9375 16.6875H24.8125C25.2435 16.6875 25.6568 16.5163 25.9615 16.2115C26.2663 15.9068 26.4375 15.4935 26.4375 15.0625V10.1875C26.4375 9.75652 26.2663 9.3432 25.9615 9.03845C25.6568 8.7337 25.2435 8.5625 24.8125 8.5625ZM24.8125 15.0625H19.9375V10.1875H24.8125V15.0625ZM18.3125 22.375V19.125C18.3125 18.9095 18.3981 18.7028 18.5505 18.5505C18.7028 18.3981 18.9095 18.3125 19.125 18.3125C19.3405 18.3125 19.5472 18.3981 19.6995 18.5505C19.8519 18.7028 19.9375 18.9095 19.9375 19.125V22.375C19.9375 22.5905 19.8519 22.7972 19.6995 22.9495C19.5472 23.1019 19.3405 23.1875 19.125 23.1875C18.9095 23.1875 18.7028 23.1019 18.5505 22.9495C18.3981 22.7972 18.3125 22.5905 18.3125 22.375ZM26.4375 20.75C26.4375 20.9655 26.3519 21.1722 26.1995 21.3245C26.0472 21.4769 25.8405 21.5625 25.625 21.5625H23.1875V25.625C23.1875 25.8405 23.1019 26.0472 22.9495 26.1995C22.7972 26.3519 22.5905 26.4375 22.375 26.4375H19.125C18.9095 26.4375 18.7028 26.3519 18.5505 26.1995C18.3981 26.0472 18.3125 25.8405 18.3125 25.625C18.3125 25.4095 18.3981 25.2028 18.5505 25.0505C18.7028 24.8981 18.9095 24.8125 19.125 24.8125H21.5625V19.125C21.5625 18.9095 21.6481 18.7028 21.8005 18.5505C21.9528 18.3981 22.1595 18.3125 22.375 18.3125C22.5905 18.3125 22.7972 18.3981 22.9495 18.5505C23.1019 18.7028 23.1875 18.9095 23.1875 19.125V19.9375H25.625C25.8405 19.9375 26.0472 20.0231 26.1995 20.1755C26.3519 20.3278 26.4375 20.5345 26.4375 20.75ZM26.4375 24V25.625C26.4375 25.8405 26.3519 26.0472 26.1995 26.1995C26.0472 26.3519 25.8405 26.4375 25.625 26.4375C25.4095 26.4375 25.2028 26.3519 25.0505 26.1995C24.8981 26.0472 24.8125 25.8405 24.8125 25.625V24C24.8125 23.7845 24.8981 23.5778 25.0505 23.4255C25.2028 23.2731 25.4095 23.1875 25.625 23.1875C25.8405 23.1875 26.0472 23.2731 26.1995 23.4255C26.3519 23.5778 26.4375 23.7845 26.4375 24Z" fill="url(#paint0_linear_6_154)"/>
<g opacity="0.2">
<rect x="0.5" y="0.5" width="34" height="34" rx="17" fill="#F3F3F3"/>
<rect x="0.5" y="0.5" width="34" height="34" rx="17" stroke="#2DD4DA"/>
</g>
<defs>
<linearGradient id="paint0_linear_6_154" x1="8.5625" y1="17.5" x2="26.4375" y2="17.5" gradientUnits="userSpaceOnUse">
<stop stop-color="#2DD4DA"/>
<stop offset="1" stop-color="#2563EB"/>
</linearGradient>
</defs>
</svg>
