<svg width="34" height="36" viewBox="0 0 34 36" fill="none" xmlns="http://www.w3.org/2000/svg">
<rect x="1" y="1" width="34" height="34" rx="17" fill="white"/>
<rect x="1" y="1" width="34" height="34" rx="17" stroke="url(#paint0_linear_6_142)" stroke-width="2"/>
<path d="M18 5C15.4288 5 12.9154 5.76244 10.7776 7.1909C8.63975 8.61935 6.97351 10.6497 5.98957 13.0251C5.00563 15.4006 4.74819 18.0144 5.2498 20.5362C5.75141 23.0579 6.98953 25.3743 8.80762 27.1924C10.6257 29.0105 12.9421 30.2486 15.4638 30.7502C17.9856 31.2518 20.5995 30.9944 22.9749 30.0104C25.3503 29.0265 27.3807 27.3603 28.8091 25.2224C30.2376 23.0846 31 20.5712 31 18C30.9964 14.5533 29.6256 11.2488 27.1884 8.81163C24.7512 6.37445 21.4467 5.00364 18 5ZM18 29C15.8244 29 13.6977 28.3549 11.8887 27.1462C10.0798 25.9375 8.66989 24.2195 7.83733 22.2095C7.00477 20.1995 6.78693 17.9878 7.21137 15.854C7.63581 13.7202 8.68345 11.7602 10.2218 10.2218C11.7602 8.68345 13.7202 7.6358 15.854 7.21136C17.9878 6.78692 20.1995 7.00476 22.2095 7.83733C24.2195 8.66989 25.9375 10.0798 27.1462 11.8887C28.3549 13.6977 29 15.8244 29 18C28.9967 20.9164 27.8367 23.7123 25.7745 25.7745C23.7123 27.8367 20.9164 28.9967 18 29ZM19.5 18C19.5 18.2967 19.412 18.5867 19.2472 18.8334C19.0824 19.08 18.8481 19.2723 18.574 19.3858C18.2999 19.4993 17.9983 19.5291 17.7074 19.4712C17.4164 19.4133 17.1491 19.2704 16.9393 19.0607C16.7296 18.8509 16.5867 18.5836 16.5288 18.2926C16.471 18.0017 16.5007 17.7001 16.6142 17.426C16.7277 17.1519 16.92 16.9176 17.1667 16.7528C17.4133 16.588 17.7033 16.5 18 16.5C18.3978 16.5 18.7794 16.658 19.0607 16.9393C19.342 17.2206 19.5 17.6022 19.5 18ZM25 18C25 18.2967 24.912 18.5867 24.7472 18.8334C24.5824 19.08 24.3481 19.2723 24.074 19.3858C23.7999 19.4993 23.4983 19.5291 23.2074 19.4712C22.9164 19.4133 22.6491 19.2704 22.4393 19.0607C22.2296 18.8509 22.0867 18.5836 22.0288 18.2926C21.9709 18.0017 22.0007 17.7001 22.1142 17.426C22.2277 17.1519 22.42 16.9176 22.6667 16.7528C22.9133 16.588 23.2033 16.5 23.5 16.5C23.8978 16.5 24.2794 16.658 24.5607 16.9393C24.842 17.2206 25 17.6022 25 18ZM14 18C14 18.2967 13.912 18.5867 13.7472 18.8334C13.5824 19.08 13.3481 19.2723 13.074 19.3858C12.7999 19.4993 12.4983 19.5291 12.2074 19.4712C11.9164 19.4133 11.6491 19.2704 11.4393 19.0607C11.2296 18.8509 11.0867 18.5836 11.0288 18.2926C10.9709 18.0017 11.0007 17.7001 11.1142 17.426C11.2277 17.1519 11.42 16.9176 11.6667 16.7528C11.9133 16.588 12.2033 16.5 12.5 16.5C12.8978 16.5 13.2794 16.658 13.5607 16.9393C13.842 17.2206 14 17.6022 14 18Z" fill="url(#paint1_linear_6_142)"/>
<defs>
<linearGradient id="paint0_linear_6_142" x1="2" y1="18" x2="34" y2="18" gradientUnits="userSpaceOnUse">
<stop stop-color="#2DD4DA"/>
<stop offset="1" stop-color="#2563EB"/>
</linearGradient>
<linearGradient id="paint1_linear_6_142" x1="5" y1="18" x2="31" y2="18" gradientUnits="userSpaceOnUse">
<stop stop-color="#2DD4DA"/>
<stop offset="1" stop-color="#2563EB"/>
</linearGradient>
</defs>
</svg>
