<svg width="25" height="25" viewBox="0 0 25 25" fill="none" xmlns="http://www.w3.org/2000/svg">
<rect x="0.385714" y="0.385714" width="24.2286" height="24.2286" rx="12.1143" fill="#F3F3F3"/>
<rect x="0.385714" y="0.385714" width="24.2286" height="24.2286" rx="12.1143" stroke="url(#paint0_linear_11_1106)" stroke-width="0.771429"/>
<path d="M19.4834 6.29251C19.3419 6.16685 19.1653 6.07697 18.9718 6.03215C18.7782 5.98733 18.5748 5.98918 18.3823 6.03751H18.3717L4.87596 9.67751C4.65627 9.73367 4.46104 9.84799 4.31627 10.0052C4.1715 10.1625 4.08405 10.3552 4.06557 10.5577C4.04709 10.7603 4.09846 10.963 4.21284 11.1389C4.32721 11.3148 4.49917 11.4556 4.7058 11.5425L10.726 14.0769L13.5771 19.4281C13.6671 19.5995 13.8104 19.7444 13.9901 19.8457C14.1698 19.9471 14.3783 20.0006 14.591 20C14.6234 20 14.6557 19.9988 14.6881 19.9963C14.9151 19.9799 15.1311 19.9022 15.307 19.7737C15.483 19.6451 15.6105 19.4717 15.6724 19.2769L19.7646 7.28064C19.7646 7.27751 19.7646 7.27439 19.7646 7.27126C19.8197 7.10062 19.8227 6.92001 19.7733 6.748C19.7238 6.57599 19.6238 6.41878 19.4834 6.29251ZM14.5974 18.9906L14.5939 18.9994L11.8263 13.8063L15.1479 10.8531C15.2489 10.7586 15.3044 10.6327 15.3026 10.5024C15.3007 10.372 15.2416 10.2474 15.1379 10.1552C15.0341 10.063 14.894 10.0105 14.7473 10.0088C14.6006 10.0071 14.459 10.0565 14.3527 10.1463L11.0304 13.0988L5.18744 10.6388H5.19729L18.6874 7.00001L14.5974 18.9906Z" fill="url(#paint1_linear_11_1106)"/>
<defs>
<linearGradient id="paint0_linear_11_1106" x1="0" y1="12.5" x2="25" y2="12.5" gradientUnits="userSpaceOnUse">
<stop stop-color="#2DD4DA"/>
<stop offset="1" stop-color="#2563EB"/>
</linearGradient>
<linearGradient id="paint1_linear_11_1106" x1="4.06189" y1="12.9999" x2="19.8083" y2="12.9999" gradientUnits="userSpaceOnUse">
<stop stop-color="#2DD4DA"/>
<stop offset="1" stop-color="#2563EB"/>
</linearGradient>
</defs>
</svg>
